<svg xmlns="http://www.w3.org/2000/svg" xmlns:xlink="http://www.w3.org/1999/xlink" width="665" height="825" viewBox="0 0 665 825">
  <defs>
    <clipPath id="clip-path">
      <rect width="100" height="50" fill="none"/>
    </clipPath>
  </defs>
  <path id="Polígono_3" data-name="Polígono 3" d="M305.6,66.738c9.758-24.213,44.037-24.213,53.8,0L648.943,785.159A29,29,0,0,1,622.045,825H42.955a29,29,0,0,1-26.9-39.841Z" fill="#5e270b"/>
  <g id="Polígono_4" data-name="Polígono 4" transform="translate(77 46)" fill="#c69b6f">
    <path d="M 489.279052734375 633.5000610351562 L 20.72090721130371 633.5000610351562 C 18.40298461914062 633.5000610351562 16.21867752075195 632.9454345703125 14.22860050201416 631.8517456054688 C 12.36313819885254 630.8264770507812 10.74006175994873 629.3416748046875 9.534753799438477 627.5578002929688 C 8.329523086547852 625.7739868164062 7.557677268981934 623.7140502929688 7.302599906921387 621.600830078125 C 7.030523300170898 619.3463134765625 7.331061840057373 617.1128540039062 8.196062088012695 614.9623413085938 L 242.4750671386719 32.48026275634766 C 243.5486755371094 29.81111145019531 245.3426055908203 27.61626434326172 247.6631317138672 26.13311004638672 C 249.8280639648438 24.74926376342773 252.3651428222656 24.01787948608398 254.9999847412109 24.01787948608398 C 257.634765625 24.01787948608398 260.1718444824219 24.74926376342773 262.3367614746094 26.13311004638672 C 264.6572875976562 27.61626434326172 266.4512023925781 29.81111145019531 267.5247497558594 32.48018646240234 L 501.8039855957031 614.96240234375 C 502.6689147949219 617.1128540039062 502.9695129394531 619.3463134765625 502.6973571777344 621.600830078125 C 502.4423828125 623.714111328125 501.6704406738281 625.7740478515625 500.4652099609375 627.557861328125 C 499.2599792480469 629.3417358398438 497.6368408203125 630.8264770507812 495.7713623046875 631.8517456054688 C 493.7812805175781 632.9454956054688 491.5969848632812 633.5000610351562 489.279052734375 633.5000610351562 Z" stroke="none"/>
    <path d="M 254.9999084472656 24.517822265625 C 252.4606628417969 24.517822265625 250.0167541503906 25.2220458984375 247.932373046875 26.5543212890625 C 245.7001342773438 27.98114013671875 243.9734497070312 30.09478759765625 242.9389953613281 32.66680908203125 L 8.659912109375 615.14892578125 C 7.826751708984375 617.2203979492188 7.53704833984375 619.3709716796875 7.798980712890625 621.540771484375 C 8.044525146484375 623.5756225585938 8.788055419921875 625.5595092773438 9.949066162109375 627.2778930664062 C 11.11007690429688 628.9962768554688 12.67312622070312 630.4263305664062 14.4693603515625 631.4135131835938 C 16.38482666015625 632.4661865234375 18.48812866210938 632.9999389648438 20.72091674804688 632.9999389648438 L 489.279052734375 632.9999389648438 C 491.5117492675781 632.9999389648438 493.6150512695312 632.4661865234375 495.530517578125 631.4135131835938 C 497.3267517089844 630.4263305664062 498.8898315429688 628.9962768554688 500.0508422851562 627.2778930664062 C 501.2118225097656 625.5595092773438 501.9553833007812 623.5756225585938 502.2009887695312 621.540771484375 C 502.4628295898438 619.3709716796875 502.1732177734375 617.2203979492188 501.3400573730469 615.14892578125 L 267.0609130859375 32.66680908203125 C 266.0264282226562 30.09478759765625 264.2997436523438 27.98114013671875 262.0675048828125 26.5543212890625 C 259.9830627441406 25.2220458984375 257.5391235351562 24.517822265625 254.9999084472656 24.517822265625 M 254.9999389648438 23.51776123046875 C 260.3177490234375 23.51776123046875 265.6355590820312 26.44305419921875 267.9886779785156 32.29364013671875 L 502.267822265625 614.7758178710938 C 505.9679870605469 623.9754028320312 499.1949157714844 633.9999389648438 489.279052734375 633.9999389648438 L 20.72091674804688 633.9999389648438 C 10.80499267578125 633.9999389648438 4.03192138671875 623.9754028320312 7.732147216796875 614.7758178710938 L 242.01123046875 32.29364013671875 C 244.3643188476562 26.44305419921875 249.68212890625 23.51776123046875 254.9999389648438 23.51776123046875 Z" stroke="none" fill="#000"/>
  </g>
  <g id="Rectángulo_10" data-name="Rectángulo 10" transform="translate(303 591)" fill="rgba(132,132,132,0.76)" stroke="#707070" stroke-width="1">
    <rect width="88" height="14" rx="7" stroke="none"/>
    <rect x="0.5" y="0.5" width="87" height="13" rx="6.5" fill="none"/>
  </g>
  <g id="Rectángulo_11" data-name="Rectángulo 11" transform="translate(272 552)" fill="rgba(132,132,132,0.76)" stroke="#707070" stroke-width="1">
    <rect width="88" height="14" rx="7" stroke="none"/>
    <rect x="0.5" y="0.5" width="87" height="13" rx="6.5" fill="none"/>
  </g>
  <g id="Rectángulo_12" data-name="Rectángulo 12" transform="translate(302 513)" fill="rgba(132,132,132,0.76)" stroke="#707070" stroke-width="1">
    <rect width="88" height="14" rx="7" stroke="none"/>
    <rect x="0.5" y="0.5" width="87" height="13" rx="6.5" fill="none"/>
  </g>
  <g id="Rectángulo_13" data-name="Rectángulo 13" transform="translate(272 474)" fill="rgba(132,132,132,0.76)" stroke="#707070" stroke-width="1">
    <rect width="88" height="14" rx="7" stroke="none"/>
    <rect x="0.5" y="0.5" width="87" height="13" rx="6.5" fill="none"/>
  </g>
  <g id="Rectángulo_14" data-name="Rectángulo 14" transform="translate(303 435)" fill="rgba(132,132,132,0.76)" stroke="#707070" stroke-width="1">
    <rect width="88" height="14" rx="7" stroke="none"/>
    <rect x="0.5" y="0.5" width="87" height="13" rx="6.5" fill="none"/>
  </g>
  <g id="Rectángulo_15" data-name="Rectángulo 15" transform="translate(271 396)" fill="rgba(132,132,132,0.76)" stroke="#707070" stroke-width="1">
    <rect width="88" height="14" rx="7" stroke="none"/>
    <rect x="0.5" y="0.5" width="87" height="13" rx="6.5" fill="none"/>
  </g>
  <g id="Rectángulo_16" data-name="Rectángulo 16" transform="translate(303 357)" fill="rgba(132,132,132,0.76)" stroke="#707070" stroke-width="1">
    <rect width="88" height="14" rx="7" stroke="none"/>
    <rect x="0.5" y="0.5" width="87" height="13" rx="6.5" fill="none"/>
  </g>
  <g id="Rectángulo_17" data-name="Rectángulo 17" transform="translate(272 318)" fill="rgba(132,132,132,0.76)" stroke="#707070" stroke-width="1">
    <rect width="88" height="14" rx="7" stroke="none"/>
    <rect x="0.5" y="0.5" width="87" height="13" rx="6.5" fill="none"/>
  </g>
  <g id="Rectángulo_18" data-name="Rectángulo 18" transform="translate(302 279)" fill="rgba(132,132,132,0.76)" stroke="#707070" stroke-width="1">
    <rect width="88" height="14" rx="7" stroke="none"/>
    <rect x="0.5" y="0.5" width="87" height="13" rx="6.5" fill="none"/>
  </g>
  <g id="Rectángulo_19" data-name="Rectángulo 19" transform="translate(272 240)" fill="rgba(132,132,132,0.76)" stroke="#707070" stroke-width="1">
    <rect width="88" height="14" rx="7" stroke="none"/>
    <rect x="0.5" y="0.5" width="87" height="13" rx="6.5" fill="none"/>
  </g>
  <g id="Rectángulo_20" data-name="Rectángulo 20" transform="translate(303 201)" fill="rgba(132,132,132,0.76)" stroke="#707070" stroke-width="1">
    <rect width="88" height="14" rx="7" stroke="none"/>
    <rect x="0.5" y="0.5" width="87" height="13" rx="6.5" fill="none"/>
  </g>
  <circle id="Elipse_3" data-name="Elipse 3" cx="50" cy="50" r="50" transform="translate(282 330)" fill="#c90000"/>
  <rect id="Rectángulo_9" data-name="Rectángulo 9" width="30" height="500" rx="15" transform="translate(317 180)" fill="#c90000"/>
  <g id="Grupo_de_desplazamiento_1" data-name="Grupo de desplazamiento 1" transform="translate(282 630)" clip-path="url(#clip-path)" style="isolation: isolate">
    <circle id="Elipse_4" data-name="Elipse 4" cx="50" cy="50" r="50" fill="#5e270b"/>
  </g>
</svg>
